<svg width="512" height="512" viewBox="0 0 512 512" fill="none" xmlns="http://www.w3.org/2000/svg">
<rect width="512" height="512" fill="#434378"/>
<rect x="83" y="161" width="346" height="189" rx="8" stroke="white" stroke-width="16"/>
<circle cx="256" cy="88" r="22" stroke="white" stroke-width="16"/>
<circle cx="159" cy="226" r="22" stroke="white" stroke-width="16"/>
<circle cx="360" cy="226" r="22" stroke="white" stroke-width="16"/>
<rect x="248" y="114" width="16" height="45" fill="white"/>
<path d="M30 295.145L30 219.221C30 215.853 32.1088 212.846 35.2748 211.699L72.2748 198.293C77.4908 196.404 83 200.267 83 205.815L83 306.406C83 311.778 77.8102 315.623 72.6707 314.059L35.6707 302.798C32.3022 301.773 30 298.666 30 295.145Z" stroke="white" stroke-width="16"/>
<path d="M482 295.145V219.221C482 215.853 479.891 212.846 476.725 211.699L439.725 198.293C434.509 196.404 429 200.267 429 205.815V306.406C429 311.778 434.19 315.623 439.329 314.059L476.329 302.798C479.698 301.773 482 298.666 482 295.145Z" stroke="white" stroke-width="16"/>
<path d="M344.678 350L173.143 350C170.517 350 168.059 351.288 166.565 353.447L140.955 390.447C137.283 395.753 141.08 403 147.533 403L366.19 403C372.359 403 376.207 396.312 373.106 390.979L351.594 353.979C350.161 351.516 347.527 350 344.678 350Z" stroke="white" stroke-width="16"/>
<path d="M254.178 313.375C246.075 313.375 238.616 312.297 231.798 310.141C224.981 307.963 218.665 304.641 212.849 300.176V286.879C215.006 288.578 217.641 290.157 220.756 291.616C223.848 293.076 227.246 294.35 230.949 295.439C234.652 296.528 238.485 297.377 242.449 297.987C246.391 298.597 250.301 298.902 254.178 298.902C259.339 298.902 264.556 298.379 269.827 297.334C275.076 296.267 279.955 294.829 284.463 293.021C288.972 291.192 292.663 289.144 295.538 286.879V300.176C289.723 304.641 283.407 307.963 276.589 310.141C269.772 312.297 262.302 313.375 254.178 313.375Z" fill="white"/>
</svg>
